<?xml version="1.0" standalone="no"?>
<!DOCTYPE svg PUBLIC "-//W3C//DTD SVG 20010904//EN"
 "http://www.w3.org/TR/2001/REC-SVG-20010904/DTD/svg10.dtd">
<svg version="1.0" xmlns="http://www.w3.org/2000/svg"
 width="260.000000pt" height="260.000000pt" viewBox="0 0 260.000000 260.000000"
 preserveAspectRatio="xMidYMid meet">
<metadata>
Created by potrace 1.14, written by Peter Selinger 2001-2017
</metadata>
<g transform="translate(0.000000,260.000000) scale(0.100000,-0.100000)"
fill="#000000" stroke="none">
<path d="M0 1300 l0 -1300 34 0 c42 0 47 7 52 73 2 29 7 68 10 87 9 53 12 82
13 118 1 17 10 41 20 51 11 11 22 41 26 70 4 28 11 53 16 57 5 3 9 16 9 29 0
41 11 54 71 85 71 36 128 47 158 30 20 -10 184 -22 281 -20 19 0 44 -4 55 -9
23 -12 191 -41 235 -41 30 0 30 1 28 50 -3 45 -5 50 -26 50 -13 0 -33 10 -45
23 -12 12 -38 29 -57 39 -36 17 -184 33 -280 30 -30 -1 -109 -3 -175 -4 -119
-3 -146 -9 -188 -46 -29 -26 -31 -6 -5 75 l25 78 -91 5 c-102 6 -94 -3 -82 93
3 24 1 37 -7 37 -8 0 -8 3 0 11 8 8 8 20 3 35 -11 28 -6 55 15 88 14 20 14 26
4 26 -12 0 -12 2 0 9 7 5 11 13 7 19 -3 6 -2 13 4 17 5 3 10 30 10 60 0 30 5
57 10 60 6 4 8 10 5 15 -3 4 4 10 14 13 14 3 19 13 18 33 -1 36 12 113 25 137
21 41 194 101 222 77 8 -6 62 -12 123 -14 103 -4 175 -12 308 -37 33 -6 85
-12 116 -14 l55 -3 -2 42 c-2 22 -4 43 -5 46 -1 3 -1 8 0 13 1 4 -10 5 -23 1
-17 -4 -29 1 -43 18 -10 13 -29 29 -41 35 -24 14 -243 38 -307 34 -22 -1 -94
-3 -160 -4 -122 -3 -144 -9 -187 -49 -42 -41 -45 -7 -7 77 32 69 28 75 -46 75
l-65 0 5 53 c3 28 7 63 8 77 1 14 7 29 12 33 6 5 3 7 -7 4 -22 -8 -29 2 -17
24 8 15 6 19 -8 19 -15 0 -16 2 -3 10 9 5 19 5 26 -1 9 -7 12 -5 10 8 -2 10 1
32 6 48 5 17 11 59 14 95 7 84 10 93 33 87 16 -4 19 1 18 37 0 46 10 108 24
146 6 17 31 35 77 57 86 41 128 50 150 30 13 -11 57 -16 174 -20 87 -3 166
-11 176 -16 26 -14 189 -39 218 -33 20 4 23 10 22 48 -1 44 -11 64 -23 44 -3
-6 -15 0 -28 14 -52 55 -62 57 -386 56 -283 -1 -300 -2 -316 -21 -10 -10 -25
-19 -34 -19 -12 0 -12 3 -3 12 7 7 12 16 12 20 0 4 -65 8 -145 8 l-145 0 0
-1300z"/>
<path d="M1671 2543 c-34 -32 -69 -69 -77 -84 -13 -25 -12 -27 14 -38 44 -18
75 -19 114 -5 80 28 238 56 333 60 55 2 119 7 141 10 26 4 44 2 48 -5 4 -6 15
-11 24 -11 18 0 58 -29 97 -67 12 -13 27 -23 34 -23 6 0 11 -4 11 -10 0 -5 9
-19 20 -30 13 -13 22 -38 25 -65 4 -48 -5 -55 -37 -31 -21 15 -24 37 -6 34 17
-4 17 24 0 30 -7 2 -12 0 -11 -5 1 -4 -2 -17 -6 -28 -8 -26 -60 -33 -69 -10
-3 8 -12 15 -19 15 -8 0 -24 9 -37 20 -13 11 -28 21 -34 21 -50 6 -62 6 -72
-2 -7 -6 -10 -18 -7 -28 4 -17 -5 -19 -99 -26 -102 -6 -184 -27 -259 -66 -22
-10 -39 -24 -39 -29 0 -6 -6 -10 -13 -10 -17 0 -39 -37 -27 -45 6 -4 14 4 19
17 6 13 10 16 10 8 1 -17 39 -45 49 -36 3 4 -3 13 -14 20 -10 8 -17 16 -14 18
9 7 117 58 123 58 3 0 11 -18 17 -40 17 -61 39 -76 118 -78 77 -2 93 6 119 60
18 35 19 36 39 19 29 -23 41 -61 20 -61 -9 0 -24 -9 -33 -20 -10 -11 -23 -20
-29 -20 -6 0 -17 -7 -24 -15 -14 -17 -21 -16 148 -20 66 -2 108 -7 118 -16 10
-8 18 -9 22 -3 4 6 15 13 25 17 11 4 15 12 11 18 -4 8 -3 9 4 5 7 -4 12 -2 12
4 0 6 5 8 11 5 5 -4 19 1 30 11 17 15 19 15 19 1 0 -9 6 -20 13 -24 6 -4 13
-16 13 -25 1 -10 -2 -16 -6 -13 -14 9 -17 -18 -7 -60 5 -22 10 -49 12 -60 1
-11 3 -20 5 -20 1 0 3 -19 4 -42 l2 -43 -45 0 c-60 0 -93 -9 -84 -24 5 -7 2
-7 -8 1 -20 16 -80 14 -102 -5 -16 -15 -16 -16 0 -35 13 -15 15 -21 5 -24 -6
-3 -10 -9 -6 -14 3 -5 1 -9 -4 -9 -6 0 -13 11 -16 25 -4 14 -11 23 -16 20 -6
-4 -8 -11 -5 -16 4 -5 -5 -4 -20 3 -20 9 -61 8 -182 -2 -86 -7 -168 -16 -182
-20 -14 -4 -65 -2 -112 3 l-87 9 -74 -73 c-41 -41 -83 -87 -93 -102 -17 -27
-17 -28 1 -42 27 -20 86 -18 136 4 66 29 212 55 328 59 58 2 132 4 165 5 52 2
63 -1 86 -23 15 -14 41 -38 58 -53 17 -16 29 -33 26 -38 -4 -5 1 -9 10 -9 10
0 13 -5 9 -12 -4 -6 -3 -8 3 -5 6 4 19 -4 30 -16 23 -24 42 -74 25 -63 -6 3
-13 2 -17 -4 -3 -5 -2 -10 4 -10 6 0 8 -6 5 -13 -3 -9 -16 -12 -37 -9 -27 4
-29 6 -12 13 11 4 18 8 15 9 -12 4 -57 11 -82 13 -15 1 -33 10 -41 20 -16 23
-88 38 -113 24 -14 -8 -16 -7 -11 7 7 18 -1 20 -21 7 -11 -7 -10 -11 2 -24 15
-15 15 -17 -1 -25 -10 -5 -59 -12 -110 -15 -50 -4 -111 -13 -135 -22 -24 -8
-49 -15 -55 -15 -7 0 -31 -8 -53 -17 -39 -17 -55 -36 -45 -53 6 -10 82 17 106
37 24 20 28 17 49 -31 11 -24 25 -48 32 -54 7 -6 45 -13 84 -17 70 -7 71 -7
96 24 14 16 28 36 30 43 6 17 58 -16 58 -36 0 -8 -23 -28 -51 -44 l-52 -30 39
-13 c22 -7 65 -13 97 -13 31 0 57 -4 57 -9 0 -5 6 -4 14 2 11 9 16 9 21 1 4
-7 16 -10 26 -7 10 3 22 1 25 -5 3 -5 13 -7 21 -3 9 3 25 -3 36 -12 19 -17 19
-17 13 3 -7 24 18 42 30 22 5 -7 2 -8 -6 -3 -10 6 -12 2 -7 -16 4 -13 7 -27 7
-31 0 -12 20 -10 20 1 0 5 5 22 10 37 14 37 33 18 21 -21 -5 -18 -4 -40 2 -55
5 -14 11 -51 14 -83 4 -51 2 -58 -17 -65 -12 -4 -21 -11 -21 -15 3 -30 -1 -60
-7 -47 -4 8 -16 17 -27 18 -11 2 -25 12 -33 23 -8 11 -25 19 -41 19 -23 0 -30
-6 -37 -27 -4 -16 -6 -34 -5 -41 2 -10 -2 -11 -15 -4 -10 6 -29 6 -43 2 -14
-5 -73 -11 -131 -15 -58 -3 -125 -10 -149 -14 -24 -5 -92 -7 -150 -5 l-107 5
-75 -65 c-71 -60 -121 -127 -107 -142 20 -19 79 -19 168 2 196 46 251 55 327
54 43 0 102 2 131 6 51 6 57 4 108 -31 29 -20 56 -45 59 -56 4 -10 13 -19 21
-19 7 0 26 -18 40 -40 32 -48 40 -96 18 -104 -12 -5 -14 -1 -8 16 6 20 5 21
-10 9 -14 -11 -16 -11 -16 2 0 10 -6 14 -14 11 -8 -3 -12 -12 -9 -20 3 -8 3
-14 0 -14 -16 0 -97 41 -97 48 0 11 -34 25 -103 42 -36 10 -51 10 -60 1 -8 -8
-8 -11 1 -11 13 0 17 -50 5 -50 -93 -2 -192 -13 -218 -24 -18 -8 -36 -12 -39
-8 -3 3 -6 1 -6 -5 0 -6 -23 -16 -50 -23 -29 -7 -56 -21 -65 -33 -16 -22 -9
-45 8 -28 6 6 20 11 30 11 11 0 35 10 54 21 19 12 36 19 39 17 2 -3 17 -29 32
-59 26 -52 29 -54 77 -61 82 -13 108 1 155 81 11 19 35 8 57 -25 17 -26 17
-28 -2 -38 -25 -15 -65 -53 -65 -63 0 -10 25 -14 103 -16 31 -1 57 -5 57 -9 0
-4 14 -5 31 -1 21 4 34 1 41 -8 8 -11 9 -10 4 4 -6 20 14 23 32 5 10 -10 15
-10 22 2 5 8 10 11 11 5 0 -5 4 -1 8 9 8 20 51 33 51 16 0 -6 -6 -9 -12 -8 -8
2 -13 -8 -12 -27 0 -16 -7 -36 -15 -43 -13 -11 -12 -11 7 -2 30 15 40 5 24
-23 -10 -17 -7 -15 12 5 32 36 40 35 22 -1 -15 -27 -14 -29 7 -35 12 -3 43 -6
70 -6 l47 0 0 1300 0 1300 -433 0 -433 0 -63 -57z m289 -339 c0 -8 -7 -14 -15
-14 -15 0 -21 21 -9 33 10 9 24 -2 24 -19z m81 -9 c0 -5 -9 -11 -21 -13 -20
-3 -27 8 -13 22 10 9 34 3 34 -9z m-56 -940 c0 -5 -10 -11 -22 -13 -16 -2 -23
2 -23 13 0 11 7 15 23 13 12 -2 22 -7 22 -13z m350 -495 c-3 -5 -12 -10 -18
-10 -7 0 -6 4 3 10 19 12 23 12 15 0z m-433 -455 c0 -5 -5 -11 -11 -13 -6 -2
-11 4 -11 13 0 9 5 15 11 13 6 -2 11 -8 11 -13z m88 -6 c0 -16 -31 -22 -43
-10 -9 9 -9 14 2 20 16 10 41 4 41 -10z"/>
<path d="M600 2275 c-7 -8 -27 -15 -45 -15 -18 0 -49 -7 -68 -15 -20 -8 -56
-15 -79 -15 -34 0 -51 -6 -76 -30 -28 -26 -61 -87 -53 -99 1 -2 -3 -8 -11 -12
-8 -5 11 -9 47 -9 34 0 66 5 73 12 9 9 12 9 12 0 0 -7 5 -12 11 -12 7 0 9 9 6
22 -5 16 3 30 31 54 45 40 82 45 82 11 0 -34 59 -87 95 -87 87 1 137 32 150
92 9 40 19 42 80 14 29 -14 66 -26 81 -26 l27 0 -26 20 c-14 11 -28 20 -31 20
-4 0 -23 11 -44 24 -21 13 -53 27 -72 31 -19 4 -46 13 -59 20 -18 9 -33 10
-54 2 -21 -7 -35 -7 -48 1 -13 9 -20 8 -29 -3z m-10 -65 c0 -5 -5 -10 -11 -10
-5 0 -7 5 -4 10 3 6 8 10 11 10 2 0 4 -4 4 -10z m98 -7 c5 -17 -26 -29 -40
-15 -6 6 -7 15 -3 22 9 14 37 9 43 -7z"/>
<path d="M2065 2051 c-3 -5 -1 -12 5 -16 12 -7 30 2 30 16 0 12 -27 12 -35 0z"/>
<path d="M542 1318 c-9 -4 -31 -7 -48 -7 -18 -1 -51 -10 -75 -21 -24 -11 -63
-20 -86 -20 -24 0 -43 -4 -43 -10 0 -5 -6 -10 -13 -10 -19 0 -58 -57 -60 -88
-2 -31 19 -38 90 -27 31 4 43 11 43 23 0 19 53 65 86 76 16 5 24 -1 37 -29 23
-48 69 -75 116 -68 57 9 85 25 103 63 29 60 32 62 91 40 28 -11 60 -25 70 -30
23 -14 42 -3 27 15 -14 17 -104 60 -155 75 -22 6 -47 14 -55 18 -20 8 -106 9
-128 0z m74 -49 c9 -16 -12 -33 -31 -25 -14 5 -15 9 -5 21 15 18 26 19 36 4z"/>
<path d="M1640 1190 c-17 -11 -8 -23 14 -18 9 2 12 8 8 15 -5 8 -13 9 -22 3z"/>
<path d="M1725 1170 c3 -5 10 -10 16 -10 5 0 9 5 9 10 0 6 -7 10 -16 10 -8 0
-12 -4 -9 -10z"/>
<path d="M2008 1098 c9 -9 15 -9 24 0 9 9 7 12 -12 12 -19 0 -21 -3 -12 -12z"/>
<path d="M2415 990 c3 -5 8 -10 11 -10 2 0 4 5 4 10 0 6 -5 10 -11 10 -5 0 -7
-4 -4 -10z"/>
<path d="M2436 945 c4 -8 11 -15 16 -15 6 0 5 6 -2 15 -7 8 -14 15 -16 15 -2
0 -1 -7 2 -15z"/>
<path d="M2408 803 c6 -2 18 -2 25 0 6 3 1 5 -13 5 -14 0 -19 -2 -12 -5z"/>
<path d="M529 364 c-6 -8 -26 -14 -43 -12 -17 1 -45 -6 -63 -15 -35 -19 -90
-22 -113 -7 -18 11 -40 -5 -40 -31 0 -11 -6 -19 -12 -19 -7 0 -24 -17 -38 -38
-14 -20 -29 -40 -35 -44 -16 -11 35 -25 114 -30 61 -5 72 -3 58 7 -9 6 -14 15
-10 19 4 4 1 12 -7 17 -13 9 -12 10 1 6 10 -3 28 6 45 25 51 52 61 53 84 9 34
-68 83 -85 172 -61 31 9 40 19 59 60 12 28 27 50 32 50 5 0 37 -12 73 -26 35
-14 68 -22 74 -19 17 10 -97 79 -148 90 -9 2 -35 10 -57 18 -28 10 -48 11 -65
5 -15 -6 -33 -5 -47 1 -16 7 -25 6 -34 -5z m87 -55 c3 -6 2 -15 -3 -20 -14
-14 -43 0 -36 17 6 17 29 19 39 3z"/>
<path d="M140 320 c0 -5 5 -10 11 -10 5 0 7 5 4 10 -3 6 -8 10 -11 10 -2 0 -4
-4 -4 -10z"/>
<path d="M1730 209 c0 -5 9 -9 20 -9 11 0 20 2 20 4 0 2 -9 6 -20 9 -11 3 -20
1 -20 -4z"/>
<path d="M2050 153 c0 -6 -11 -9 -24 -8 -19 2 -23 -1 -19 -16 6 -20 37 -26 48
-9 4 6 11 8 16 5 15 -10 10 12 -6 25 -8 7 -15 8 -15 3z"/>
</g>
</svg>
